<svg width="30" height="28" viewBox="0 0 30 28" fill="none" xmlns="http://www.w3.org/2000/svg">
<path d="M7.25981 -1.65105e-05C4.71857 1.53084 2.68835 3.78089 1.42589 6.46559C0.163425 9.15029 -0.27458 12.1491 0.167262 15.0827C0.609102 18.0163 1.91094 20.7531 3.90816 22.9468C5.90538 25.1406 8.50826 26.6928 11.3877 27.4073C14.2671 28.1217 17.2937 27.9663 20.0848 26.9606C22.8758 25.9549 25.306 24.1442 27.0679 21.7574C28.8299 19.3705 29.8445 16.5148 29.9835 13.5514C30.1225 10.5879 29.3796 7.64978 27.8487 5.10855L20.2182 9.70523C20.8399 10.7373 21.1416 11.9305 21.0852 13.1341C21.0287 14.3376 20.6167 15.4974 19.9011 16.4667C19.1855 17.4361 18.1986 18.1715 17.065 18.5799C15.9315 18.9883 14.7023 19.0515 13.5329 18.7613C12.3635 18.4712 11.3064 17.8408 10.4953 16.9498C9.68417 16.0589 9.15546 14.9474 8.97602 13.756C8.79658 12.5646 8.97446 11.3467 9.48718 10.2564C9.9999 9.16603 10.8244 8.25223 11.8565 7.63051L7.25981 -1.65105e-05Z" fill="#FF8930"/>
</svg>
