<svg width="374" height="67" viewBox="0 0 374 67" fill="none" xmlns="http://www.w3.org/2000/svg">
<path d="M29.2919 2.90256C29.7159 2.78069 30.1273 2.88164 30.4346 3.33609L30.4358 3.33791C30.4794 3.40201 30.5621 3.61545 30.6545 4.04393C30.741 4.44553 30.823 4.96763 30.9006 5.58039C31.0556 6.80438 31.1891 8.35484 31.309 9.95905C31.5466 13.1408 31.7329 16.5712 31.9364 17.9237C32.0972 18.9925 32.393 20.7865 32.7818 22.5221C32.9762 23.3896 33.1956 24.2493 33.4349 24.9998C33.6712 25.741 33.938 26.4117 34.2384 26.8778C34.9622 28.0032 36.1136 28.8079 37.4406 29.4225C38.7693 30.038 40.3175 30.4832 41.8837 30.8633C42.6685 31.0537 43.4654 31.2289 44.2451 31.4017C45.0267 31.5749 45.7914 31.7455 46.5227 31.9263C47.8095 32.2443 48.9625 32.5878 49.8876 33.0199L50.2697 33.2113C50.9426 33.5702 51.3253 33.872 51.5151 34.1112C51.6857 34.3262 51.6691 34.4415 51.6376 34.5237C51.5854 34.6599 51.422 34.8575 51.0533 35.1036C50.6971 35.3414 50.2122 35.5836 49.6202 35.8358C48.6598 36.2447 47.3976 36.5613 45.9735 36.8522C45.2651 36.997 44.5248 37.1337 43.7697 37.2725C43.0161 37.411 42.2473 37.5518 41.4901 37.7025C39.9789 38.0033 38.4885 38.3496 37.2087 38.8169C36.017 39.252 34.9543 39.81 34.2312 40.5808L34.0916 40.738C33.1792 41.8142 32.4841 43.4849 31.9163 45.4005C31.3445 47.3299 30.885 49.5713 30.4738 51.8365C30.0555 54.1408 29.7037 56.3726 29.3172 58.4685C28.9495 60.462 28.5691 62.2037 28.1291 63.4761C27.6333 63.8256 27.2775 63.8116 27.0112 63.6848C26.7148 63.5436 26.4138 63.2119 26.1604 62.6924L26.0551 62.4583C25.4237 60.947 25.109 58.3708 24.8524 55.5935C24.6161 53.0361 24.4298 50.3291 24.0584 48.3404L23.9816 47.9526C23.6672 46.4523 23.2419 44.4304 22.5246 42.5942C21.8138 40.7749 20.7745 39.0261 19.1615 38.195L19.1614 38.1941L18.812 38.0261C17.9606 37.6392 16.855 37.2912 15.6535 36.964C14.274 36.5883 12.7252 36.2287 11.2302 35.8671C9.72765 35.5037 8.2774 35.1377 7.06708 34.7445C5.83627 34.3447 4.93061 33.9399 4.45842 33.5304C3.98338 33.1187 3.93581 32.8534 3.95016 32.7217C3.96744 32.5643 4.09529 32.3536 4.43 32.1049C5.09532 31.6108 6.17074 31.2612 6.81746 31.0441L6.81636 31.0432C9.15656 30.2629 11.5969 29.7804 14.0751 29.3158C16.543 28.8532 19.0546 28.4089 21.4861 27.704L21.7295 27.633L21.8171 27.3947C22.4939 25.5507 23.2246 23.7164 23.8396 21.8104L24.0957 20.9896C24.8147 18.6001 25.3735 15.2533 25.9663 12.0861C26.5664 8.87969 27.1993 5.87715 28.0537 4.05855C28.3435 3.44301 28.8335 3.03448 29.2919 2.90256Z" fill="#FFC900" stroke="black"/>
<path d="M108.903 2.90256C109.327 2.78069 109.738 2.88164 110.045 3.33609L110.047 3.33791C110.09 3.40201 110.173 3.61545 110.265 4.04393C110.352 4.44553 110.434 4.96763 110.511 5.58039C110.666 6.80438 110.8 8.35484 110.92 9.95905C111.158 13.1408 111.344 16.5712 111.547 17.9237C111.708 18.9925 112.004 20.7865 112.393 22.5221C112.587 23.3896 112.806 24.2493 113.046 24.9998C113.282 25.741 113.549 26.4117 113.849 26.8778C114.573 28.0032 115.725 28.8079 117.051 29.4225C118.38 30.038 119.928 30.4832 121.495 30.8633C122.279 31.0537 123.076 31.2289 123.856 31.4017C124.638 31.5749 125.402 31.7455 126.134 31.9263C127.42 32.2443 128.573 32.5878 129.498 33.0199L129.881 33.2113C130.553 33.5702 130.936 33.872 131.126 34.1112C131.297 34.3262 131.28 34.4415 131.248 34.5237C131.196 34.6599 131.033 34.8575 130.664 35.1036C130.308 35.3414 129.823 35.5836 129.231 35.8358C128.271 36.2447 127.008 36.5613 125.584 36.8522C124.876 36.997 124.136 37.1337 123.381 37.2725C122.627 37.411 121.858 37.5518 121.101 37.7025C119.59 38.0033 118.099 38.3496 116.82 38.8169C115.628 39.252 114.565 39.81 113.842 40.5808L113.702 40.738C112.79 41.8142 112.095 43.4849 111.527 45.4005C110.955 47.3299 110.496 49.5713 110.085 51.8365C109.666 54.1408 109.315 56.3726 108.928 58.4685C108.56 60.462 108.18 62.2037 107.74 63.4761C107.244 63.8256 106.888 63.8116 106.622 63.6848C106.326 63.5436 106.025 63.2119 105.771 62.6924L105.666 62.4583C105.035 60.947 104.72 58.3708 104.463 55.5935C104.227 53.0361 104.041 50.3291 103.669 48.3404L103.592 47.9526C103.278 46.4523 102.853 44.4304 102.135 42.5942C101.425 40.7749 100.385 39.0261 98.7724 38.195L98.7723 38.1941L98.4229 38.0261C97.5715 37.6392 96.4659 37.2912 95.2644 36.964C93.8849 36.5883 92.3361 36.2287 90.8411 35.8671C89.3385 35.5037 87.8883 35.1377 86.678 34.7445C85.4471 34.3447 84.5415 33.9399 84.0693 33.5304C83.5943 33.1187 83.5467 32.8534 83.561 32.7217C83.5783 32.5643 83.7062 32.3536 84.0409 32.1049C84.7062 31.6108 85.7816 31.2612 86.4283 31.0441L86.4272 31.0432C88.7674 30.2629 91.2077 29.7804 93.686 29.3158C96.1539 28.8532 98.6654 28.4089 101.097 27.704L101.34 27.633L101.428 27.3947C102.105 25.5507 102.835 23.7164 103.451 21.8104L103.707 20.9896C104.426 18.6001 104.984 15.2533 105.577 12.0861C106.177 8.87969 106.81 5.87715 107.665 4.05855C107.954 3.44301 108.444 3.03448 108.903 2.90256Z" fill="#FFC900" stroke="black"/>
<path d="M188.514 2.90256C188.938 2.78069 189.349 2.88164 189.656 3.33609L189.658 3.33791C189.701 3.40201 189.784 3.61545 189.876 4.04393C189.963 4.44553 190.045 4.96763 190.122 5.58039C190.277 6.80438 190.411 8.35484 190.531 9.95905C190.768 13.1408 190.955 16.5712 191.158 17.9237C191.319 18.9925 191.615 20.7865 192.004 22.5221C192.198 23.3896 192.417 24.2493 192.657 24.9998C192.893 25.741 193.16 26.4117 193.46 26.8778C194.184 28.0032 195.335 28.8079 196.662 29.4225C197.991 30.038 199.539 30.4832 201.105 30.8633C201.89 31.0537 202.687 31.2289 203.467 31.4017C204.248 31.5749 205.013 31.7455 205.744 31.9263C207.031 32.2443 208.184 32.5878 209.109 33.0199L209.491 33.2113C210.164 33.5702 210.547 33.872 210.737 34.1112C210.907 34.3262 210.891 34.4415 210.859 34.5237C210.807 34.6599 210.644 34.8575 210.275 35.1036C209.919 35.3414 209.434 35.5836 208.842 35.8358C207.882 36.2447 206.619 36.5613 205.195 36.8522C204.487 36.997 203.747 37.1337 202.991 37.2725C202.238 37.411 201.469 37.5518 200.712 37.7025C199.201 38.0033 197.71 38.3496 196.43 38.8169C195.239 39.252 194.176 39.81 193.453 40.5808L193.313 40.738C192.401 41.8142 191.706 43.4849 191.138 45.4005C190.566 47.3299 190.107 49.5713 189.696 51.8365C189.277 54.1408 188.925 56.3726 188.539 58.4685C188.171 60.462 187.791 62.2037 187.351 63.4761C186.855 63.8256 186.499 63.8116 186.233 63.6848C185.937 63.5436 185.636 63.2119 185.382 62.6924L185.277 62.4583C184.645 60.947 184.331 58.3708 184.074 55.5935C183.838 53.0361 183.652 50.3291 183.28 48.3404L183.203 47.9526C182.889 46.4523 182.464 44.4304 181.746 42.5942C181.036 40.7749 179.996 39.0261 178.383 38.195L178.383 38.1941L178.034 38.0261C177.182 37.6392 176.077 37.2912 174.875 36.964C173.496 36.5883 171.947 36.2287 170.452 35.8671C168.949 35.5037 167.499 35.1377 166.289 34.7445C165.058 34.3447 164.152 33.9399 163.68 33.5304C163.205 33.1187 163.158 32.8534 163.172 32.7217C163.189 32.5643 163.317 32.3536 163.652 32.1049C164.317 31.6108 165.392 31.2612 166.039 31.0441L166.038 31.0432C168.378 30.2629 170.819 29.7804 173.297 29.3158C175.765 28.8532 178.276 28.4089 180.708 27.704L180.951 27.633L181.039 27.3947C181.716 25.5507 182.446 23.7164 183.061 21.8104L183.317 20.9896C184.036 18.6001 184.595 15.2533 185.188 12.0861C185.788 8.87969 186.421 5.87715 187.275 4.05855C187.565 3.44301 188.055 3.03448 188.514 2.90256Z" fill="#FFC900" stroke="black"/>
<path d="M268.125 2.90256C268.548 2.78069 268.96 2.88164 269.267 3.33609L269.268 3.33791C269.312 3.40201 269.395 3.61545 269.487 4.04393C269.574 4.44553 269.656 4.96763 269.733 5.58039C269.888 6.80438 270.022 8.35484 270.142 9.95905C270.379 13.1408 270.566 16.5712 270.769 17.9237C270.93 18.9925 271.226 20.7865 271.614 22.5221C271.809 23.3896 272.028 24.2493 272.268 24.9998C272.504 25.741 272.771 26.4117 273.071 26.8778C273.795 28.0032 274.946 28.8079 276.273 29.4225C277.602 30.038 279.15 30.4832 280.716 30.8633C281.501 31.0537 282.298 31.2289 283.078 31.4017C283.859 31.5749 284.624 31.7455 285.355 31.9263C286.642 32.2443 287.795 32.5878 288.72 33.0199L289.102 33.2113C289.775 33.5702 290.158 33.872 290.348 34.1112C290.518 34.3262 290.502 34.4415 290.47 34.5237C290.418 34.6599 290.255 34.8575 289.886 35.1036C289.53 35.3414 289.045 35.5836 288.453 35.8358C287.492 36.2447 286.23 36.5613 284.806 36.8522C284.098 36.997 283.357 37.1337 282.602 37.2725C281.849 37.411 281.08 37.5518 280.323 37.7025C278.811 38.0033 277.321 38.3496 276.041 38.8169C274.85 39.252 273.787 39.81 273.064 40.5808L272.924 40.738C272.012 41.8142 271.317 43.4849 270.749 45.4005C270.177 47.3299 269.718 49.5713 269.306 51.8365C268.888 54.1408 268.536 56.3726 268.15 58.4685C267.782 60.462 267.402 62.2037 266.962 63.4761C266.466 63.8256 266.11 63.8116 265.844 63.6848C265.547 63.5436 265.246 63.2119 264.993 62.6924L264.888 62.4583C264.256 60.947 263.942 58.3708 263.685 55.5935C263.449 53.0361 263.262 50.3291 262.891 48.3404L262.814 47.9526C262.5 46.4523 262.075 44.4304 261.357 42.5942C260.646 40.7749 259.607 39.0261 257.994 38.195L257.994 38.1941L257.645 38.0261C256.793 37.6392 255.688 37.2912 254.486 36.964C253.107 36.5883 251.558 36.2287 250.063 35.8671C248.56 35.5037 247.11 35.1377 245.9 34.7445C244.669 34.3447 243.763 33.9399 243.291 33.5304C242.816 33.1187 242.768 32.8534 242.783 32.7217C242.8 32.5643 242.928 32.3536 243.263 32.1049C243.928 31.6108 245.003 31.2612 245.65 31.0441L245.649 31.0432C247.989 30.2629 250.429 29.7804 252.908 29.3158C255.376 28.8532 257.887 28.4089 260.319 27.704L260.562 27.633L260.65 27.3947C261.327 25.5507 262.057 23.7164 262.672 21.8104L262.928 20.9896C263.647 18.6001 264.206 15.2533 264.799 12.0861C265.399 8.87969 266.032 5.87715 266.886 4.05855C267.176 3.44301 267.666 3.03448 268.125 2.90256Z" fill="#FFC900" stroke="black"/>
<path d="M347.735 2.90256C348.159 2.78069 348.571 2.88164 348.878 3.33609L348.879 3.33791C348.923 3.40201 349.006 3.61545 349.098 4.04393C349.184 4.44553 349.266 4.96763 349.344 5.58039C349.499 6.80438 349.633 8.35484 349.752 9.95905C349.99 13.1408 350.176 16.5712 350.38 17.9237C350.541 18.9925 350.836 20.7865 351.225 22.5221C351.42 23.3896 351.639 24.2493 351.878 24.9998C352.115 25.741 352.382 26.4117 352.682 26.8778C353.406 28.0032 354.557 28.8079 355.884 29.4225C357.213 30.038 358.761 30.4832 360.327 30.8633C361.112 31.0537 361.909 31.2289 362.689 31.4017C363.47 31.5749 364.235 31.7455 364.966 31.9263C366.253 32.2443 367.406 32.5878 368.331 33.0199L368.713 33.2113C369.386 33.5702 369.769 33.872 369.959 34.1112C370.129 34.3262 370.113 34.4415 370.081 34.5237C370.029 34.6599 369.865 34.8575 369.497 35.1036C369.141 35.3414 368.656 35.5836 368.064 35.8358C367.103 36.2447 365.841 36.5613 364.417 36.8522C363.709 36.997 362.968 37.1337 362.213 37.2725C361.46 37.411 360.691 37.5518 359.934 37.7025C358.422 38.0033 356.932 38.3496 355.652 38.8169C354.46 39.252 353.398 39.81 352.675 40.5808L352.535 40.738C351.623 41.8142 350.928 43.4849 350.36 45.4005C349.788 47.3299 349.328 49.5713 348.917 51.8365C348.499 54.1408 348.147 56.3726 347.761 58.4685C347.393 60.462 347.013 62.2037 346.573 63.4761C346.077 63.8256 345.721 63.8116 345.455 63.6848C345.158 63.5436 344.857 63.2119 344.604 62.6924L344.499 62.4583C343.867 60.947 343.552 58.3708 343.296 55.5935C343.06 53.0361 342.873 50.3291 342.502 48.3404L342.425 47.9526C342.111 46.4523 341.685 44.4304 340.968 42.5942C340.257 40.7749 339.218 39.0261 337.605 38.195L337.605 38.1941L337.256 38.0261C336.404 37.6392 335.299 37.2912 334.097 36.964C332.717 36.5883 331.169 36.2287 329.674 35.8671C328.171 35.5037 326.721 35.1377 325.511 34.7445C324.28 34.3447 323.374 33.9399 322.902 33.5304C322.427 33.1187 322.379 32.8534 322.394 32.7217C322.411 32.5643 322.539 32.3536 322.873 32.1049C323.539 31.6108 324.614 31.2612 325.261 31.0441L325.26 31.0432C327.6 30.2629 330.04 29.7804 332.519 29.3158C334.987 28.8532 337.498 28.4089 339.93 27.704L340.173 27.633L340.261 27.3947C340.937 25.5507 341.668 23.7164 342.283 21.8104L342.539 20.9896C343.258 18.6001 343.817 15.2533 344.41 12.0861C345.01 8.87969 345.643 5.87715 346.497 4.05855C346.787 3.44301 347.277 3.03448 347.735 2.90256Z" fill="#FFC900" stroke="black"/>
</svg>
