<svg width="30" height="30" viewBox="0 0 30 30" fill="none" xmlns="http://www.w3.org/2000/svg">
<path d="M21 2C21.7956 2 22.5587 2.31607 23.1213 2.87868C23.6839 3.44129 24 4.20435 24 5V25C24 25.7957 23.6839 26.5587 23.1213 27.1213C22.5587 27.6839 21.7956 28 21 28H9C8.20435 28 7.44129 27.6839 6.87868 27.1213C6.31607 26.5587 6 25.7957 6 25V5C6 4.20435 6.31607 3.44129 6.87868 2.87868C7.44129 2.31607 8.20435 2 9 2H21ZM9 4C8.73478 4 8.48043 4.10536 8.29289 4.29289C8.10536 4.48043 8 4.73478 8 5V25C8 25.2652 8.10536 25.5196 8.29289 25.7071C8.48043 25.8946 8.73478 26 9 26H21C21.2652 26 21.5196 25.8946 21.7071 25.7071C21.8946 25.5196 22 25.2652 22 25V5C22 4.73478 21.8946 4.48043 21.7071 4.29289C21.5196 4.10536 21.2652 4 21 4H9ZM18.14 23.314C18.2982 23.3461 18.4405 23.432 18.5427 23.557C18.6449 23.682 18.7007 23.8385 18.7007 24C18.7007 24.1615 18.6449 24.318 18.5427 24.443C18.4405 24.568 18.2982 24.6539 18.14 24.686L18 24.7H12C11.8143 24.7 11.6363 24.6263 11.505 24.495C11.3737 24.3637 11.3 24.1857 11.3 24C11.3 23.8144 11.3737 23.6363 11.505 23.505C11.6363 23.3738 11.8143 23.3 12 23.3H18L18.14 23.314Z" fill="#FFFFFD"/>
</svg>
