<svg width="26" height="26" viewBox="0 0 26 26" fill="none" xmlns="http://www.w3.org/2000/svg">
<g clip-path="url(#clip0_154_746)">
<path fill-rule="evenodd" clip-rule="evenodd" d="M13.7654 17.0159C13.5622 17.219 13.2867 17.3331 12.9995 17.3331C12.7122 17.3331 12.4367 17.219 12.2336 17.0159L6.10514 10.8875C6.00167 10.7876 5.91914 10.668 5.86236 10.5359C5.80559 10.4037 5.7757 10.2615 5.77445 10.1177C5.7732 9.97384 5.80061 9.83119 5.85508 9.69805C5.90955 9.56491 5.98999 9.44396 6.09171 9.34224C6.19343 9.24052 6.31438 9.16008 6.44752 9.10561C6.58066 9.05114 6.72331 9.02373 6.86716 9.02498C7.011 9.02623 7.15316 9.05611 7.28533 9.11289C7.4175 9.16967 7.53704 9.2522 7.63697 9.35567L12.9995 14.7182L18.362 9.35567C18.5663 9.15833 18.8399 9.04914 19.124 9.0516C19.408 9.05407 19.6797 9.16801 19.8806 9.36886C20.0815 9.56972 20.1954 9.84144 20.1979 10.1255C20.2003 10.4095 20.0911 10.6832 19.8938 10.8875L13.7654 17.0159Z" fill="white"/>
</g>
<rect x="0.5" y="0.5" width="25" height="25" stroke="white" stroke-opacity="0.05"/>
<defs>
<clipPath id="clip0_154_746">
<rect width="26" height="26" fill="white"/>
</clipPath>
</defs>
</svg>
