<svg width="54" height="54" viewBox="0 0 54 54" fill="none" xmlns="http://www.w3.org/2000/svg">
<path d="M27 4.5C39.4268 4.5 49.5 14.5733 49.5 27C49.5 39.4268 39.4268 49.5 27 49.5C14.5733 49.5 4.5 39.4268 4.5 27C4.5 14.5733 14.5733 4.5 27 4.5ZM27 9C22.2261 9 17.6477 10.8964 14.2721 14.2721C10.8964 17.6477 9 22.2261 9 27C9 31.7739 10.8964 36.3523 14.2721 39.7279C17.6477 43.1036 22.2261 45 27 45C31.7739 45 36.3523 43.1036 39.7279 39.7279C43.1036 36.3523 45 31.7739 45 27C45 22.2261 43.1036 17.6477 39.7279 14.2721C36.3523 10.8964 31.7739 9 27 9ZM27 13.5C27.5511 13.5001 28.083 13.7024 28.4948 14.0686C28.9067 14.4348 29.1698 14.9394 29.2342 15.4867L29.25 15.75V26.0685L35.3407 32.1593C35.7443 32.5642 35.9786 33.1075 35.996 33.6789C36.0135 34.2502 35.8128 34.8069 35.4347 35.2356C35.0566 35.6644 34.5295 35.9332 33.9604 35.9874C33.3914 36.0416 32.823 35.8772 32.3708 35.5275L32.1593 35.3407L25.4093 28.5907C25.0596 28.2408 24.835 27.7853 24.7703 27.2947L24.75 27V15.75C24.75 15.1533 24.9871 14.581 25.409 14.159C25.831 13.7371 26.4033 13.5 27 13.5Z" fill="white"/>
</svg>
