<svg width="258" height="68" viewBox="0 0 258 68" fill="none" xmlns="http://www.w3.org/2000/svg">
<g clip-path="url(#clip0_458_939)">
<path d="M29.2398 38.8159C29.2398 37.1759 30.0278 34.5679 36.1478 34.5679C38.0238 34.5679 39.1798 34.7039 40.7318 35.0519C40.2358 41.4759 37.0918 42.3239 34.0358 42.3239C32.3638 42.3239 29.2398 41.4519 29.2398 38.8159Z" fill="white"/>
<path d="M12.36 66H55.64C58.3876 66 61.0227 64.9085 62.9656 62.9656C64.9085 61.0227 66 58.3876 66 55.64V12.36C66 9.61236 64.9085 6.97725 62.9656 5.03437C61.0227 3.0915 58.3876 2 55.64 2L12.36 2C9.61236 2 6.97725 3.0915 5.03437 5.03437C3.0915 6.97725 2 9.61236 2 12.36L2 55.64C2 58.3876 3.0915 61.0227 5.03437 62.9656C6.97725 64.9085 9.61236 66 12.36 66ZM25.464 25.64C27.732 22.4 30.724 21.136 34.864 21.136C37.784 21.136 40.268 22.12 42.044 23.98C43.816 25.844 44.828 28.508 45.06 31.912C46.0413 32.3227 46.9453 32.8067 47.772 33.364C51.1 35.6 52.932 38.944 52.932 42.776C52.932 50.924 46.252 58 34.164 58C23.784 58 13 51.96 13 33.984C13 16.104 23.444 10 34.132 10C39.068 10 50.648 10.728 55 25.108L50.92 26.164C47.552 15.924 40.492 14.292 34.024 14.292C23.324 14.292 17.276 20.804 17.276 34.664C17.276 47.092 24.036 53.692 34.164 53.692C42.496 53.692 48.708 49.364 48.708 43.024C48.708 38.708 45.084 36.644 44.896 36.644C44.188 40.344 42.292 46.572 33.964 46.572C29.112 46.572 24.924 43.22 24.924 38.828C24.924 32.556 30.876 30.284 35.576 30.284C37.336 30.284 39.456 30.404 40.564 30.628C40.564 28.716 38.948 25.444 34.86 25.444C31.216 25.444 30.22 26.596 29.06 27.94L28.964 28.048C28.156 27.508 25.464 25.64 25.464 25.64Z" fill="white"/>
</g>
<rect x="1" y="1" width="66" height="66" rx="14" stroke="white" stroke-width="2"/>
<g clip-path="url(#clip1_458_939)">
<path d="M113 3H147C154.732 3 161 9.26801 161 17V51C161 58.732 154.732 65 147 65H113C105.268 65 99 58.732 99 51V17C99 9.26801 105.268 3 113 3Z" fill="url(#paint0_radial_458_939)" stroke="#FFFFFD" stroke-width="2"/>
<path d="M113 3H147C154.732 3 161 9.26801 161 17V51C161 58.732 154.732 65 147 65H113C105.268 65 99 58.732 99 51V17C99 9.26801 105.268 3 113 3Z" fill="url(#paint1_radial_458_939)" stroke="#FFFFFD" stroke-width="2"/>
<path d="M129.998 10C136.781 10 137.613 10.0292 140.256 10.1494V10.1504C142.502 10.2531 144.092 10.5744 145.446 11.0381L146.014 11.2451C147.538 11.8359 148.809 12.6165 150.095 13.9023C151.219 15.0263 151.958 16.1431 152.523 17.4268L152.756 17.9873C153.326 19.4634 153.729 21.1711 153.85 23.7354V23.7363C153.968 26.3811 154 27.2162 154 34C154 39.0885 153.983 40.829 153.924 42.4971L153.85 44.2617C153.729 46.8257 153.326 48.5345 152.756 50.0117C152.161 51.5364 151.38 52.8107 150.095 54.0947V54.0957C148.971 55.221 147.856 55.9608 146.574 56.5244L146.015 56.7559C144.63 57.294 143.04 57.6818 140.731 57.8252L140.26 57.8506C137.616 57.9708 136.784 58.001 129.999 58.001C124.911 58.001 123.17 57.9839 121.502 57.9248L119.737 57.8506C117.171 57.7329 115.462 57.3299 113.985 56.7559C112.463 56.1641 111.188 55.3815 109.903 54.0957H109.902C108.618 52.8115 107.837 51.5365 107.244 50.0117C106.706 48.628 106.32 47.04 106.176 44.7314L106.15 44.2598C106.03 41.6164 106 40.7837 106 34C106 27.2165 106.031 26.3809 106.149 23.7363C106.265 21.1709 106.669 19.4621 107.244 17.9863C107.801 16.5572 108.522 15.3474 109.669 14.1436L109.904 13.9023C111.189 12.6176 112.464 11.8371 113.988 11.2451V11.2441C115.464 10.6701 117.173 10.2681 119.74 10.1504L119.739 10.1494C122.383 10.0292 123.218 10 129.998 10ZM127.759 12.499C123.09 12.5043 122.18 12.5355 119.855 12.6406H119.854C117.308 12.7576 115.877 13.1864 114.896 13.5693C113.601 14.0729 112.65 14.6908 111.676 15.665C110.701 16.6392 110.083 17.5909 109.58 18.8857C109.223 19.805 108.822 21.119 108.678 23.3789L108.652 23.8438C108.532 26.5025 108.507 27.3082 108.507 33.9883C108.507 40.6682 108.532 41.4781 108.652 44.1367C108.754 46.3664 109.096 47.7402 109.436 48.7051L109.58 49.0947C110.084 50.3897 110.702 51.3385 111.676 52.3125C112.65 53.287 113.602 53.9045 114.896 54.4072V54.4082C115.815 54.7651 117.13 55.165 119.39 55.3105L119.854 55.3369C122.513 55.4577 123.322 55.4834 130.002 55.4834C136.681 55.4834 137.491 55.4577 140.149 55.3369H140.15C142.695 55.2205 144.126 54.7903 145.107 54.4072L145.108 54.4082C146.242 53.9679 147.11 53.4398 147.962 52.6621L148.326 52.3135C149.3 51.3406 149.919 50.3922 150.422 49.0967C150.803 48.1169 151.233 46.6871 151.35 44.1396V44.1387C151.47 41.4806 151.497 40.6704 151.497 33.9941C151.497 27.3184 151.47 26.5086 151.35 23.8506V23.8496C151.248 21.6203 150.906 20.2469 150.566 19.2822L150.422 18.8926L150.228 18.4229C149.759 17.3605 149.179 16.5257 148.326 15.6729H148.327C147.354 14.6984 146.403 14.0809 145.108 13.5781C144.128 13.1973 142.698 12.7669 140.15 12.6504H140.149C137.49 12.5296 136.681 12.5049 130.002 12.5049C129.564 12.5049 129.151 12.505 128.76 12.5049V12.498L127.759 12.499ZM130.002 22.1611C136.54 22.1612 141.839 27.4623 141.839 34C141.839 40.5379 136.54 45.8359 130.002 45.8359C123.464 45.8358 118.164 40.5376 118.164 34C118.164 27.5644 123.3 22.3273 129.696 22.165L130.002 22.1611ZM130.002 24.667C124.847 24.6672 120.669 28.8452 120.669 34C120.669 39.1544 124.848 43.3338 130.002 43.334C135.156 43.334 139.336 39.1545 139.336 34C139.336 28.845 135.156 24.667 130.002 24.667ZM143.348 18.6562H143.366C144.461 18.6664 145.348 19.5576 145.348 20.6553C145.348 21.7591 144.451 22.6551 143.348 22.6553C142.244 22.6553 141.348 21.7592 141.348 20.6553C141.348 19.5515 142.243 18.6562 143.348 18.6562Z" fill="white" stroke="#FFFFFD" stroke-width="2"/>
</g>
<path d="M199.68 5.41504H252.325C253.576 5.41512 254.59 6.42898 254.59 7.67969V60.3252C254.59 61.576 253.576 62.5898 252.325 62.5898H199.68C198.429 62.5897 197.415 61.5759 197.415 60.3252V7.67969C197.415 6.42904 198.429 5.41523 199.68 5.41504Z" fill="#3D5A98" stroke="white" stroke-width="2"/>
<path d="M237.24 63.5849V40.6699H244.93L246.08 31.74H237.24V26.04C237.24 23.455 237.96 21.69 241.665 21.69H246.395V13.69C244.105 13.4517 241.803 13.3382 239.5 13.35C232.69 13.35 228 17.5 228 25.155V31.74H220.31V40.6699H228V63.5849H237.24Z" fill="white"/>
<defs>
<radialGradient id="paint0_radial_458_939" cx="0" cy="0" r="1" gradientUnits="userSpaceOnUse" gradientTransform="translate(115 70.9292) rotate(-90) scale(63.4288 58.9938)">
<stop stop-color="#FFDD55"/>
<stop offset="0.1" stop-color="#FFDD55"/>
<stop offset="0.5" stop-color="#FF543E"/>
<stop offset="1" stop-color="#C837AB"/>
</radialGradient>
<radialGradient id="paint1_radial_458_939" cx="0" cy="0" r="1" gradientUnits="userSpaceOnUse" gradientTransform="translate(87.2798 6.61025) rotate(78.681) scale(28.353 116.872)">
<stop stop-color="#3771C8"/>
<stop offset="0.128" stop-color="#3771C8"/>
<stop offset="1" stop-color="#6600FF" stop-opacity="0"/>
</radialGradient>
<clipPath id="clip0_458_939">
<rect x="2" y="2" width="64" height="64" rx="13" fill="white"/>
</clipPath>
<clipPath id="clip1_458_939">
<rect width="64" height="64" fill="white" transform="translate(98 2)"/>
</clipPath>
</defs>
</svg>
