<svg width="950" height="874" viewBox="0 0 950 874" fill="none" xmlns="http://www.w3.org/2000/svg">
<g opacity="0.6" filter="url(#filter0_f_157_1024)">
<path d="M46.6441 163.035C33.9943 145.453 9.99886 92.2865 12.7211 37.592L209.987 12.508C209.731 21.3721 192.94 67.6653 244.892 79.4018C290.241 89.6467 424.255 77.6542 424.255 77.6542C424.255 77.6542 579.432 58.6016 660.889 57.7547C742.345 56.9077 812.322 90.8089 842.592 105.982C872.862 121.155 896.308 175.084 901.344 214.681C909.505 278.861 908.528 340.806 838.163 408.179C767.798 475.551 358.987 552.67 312.006 575.628C265.024 598.586 269.063 639.863 289.811 672.881C312.442 708.894 361.149 690.304 398.987 688.89C436.824 687.475 473.556 682.804 509.183 680.312C544.81 677.82 647.864 667.433 681.96 669.212C716.056 670.991 799.684 669.867 841.812 686.929C883.94 703.991 895.124 720.232 912.299 741.146C926.039 757.878 933.92 786.344 937.406 793.826L461.733 845.315C414.089 852.958 305.723 866.512 253.414 859.576C188.028 850.907 145.866 840.746 102.662 793.826C33.7021 718.937 55.5612 591.933 93.9103 534.746C132.259 477.559 216.948 447.769 267.625 422.303C318.302 396.837 627.551 322.866 643.026 319.54C658.501 316.213 676.953 271.067 673.553 255.195C670.152 239.323 640.988 221.972 599.919 219.721C567.065 217.92 452.906 235.924 399.933 245.151C299.685 255.86 208.79 247.717 174.864 241.841C134.494 234.848 60.078 181.708 46.6441 163.035Z" fill="url(#paint0_linear_157_1024)" fill-opacity="0.19"/>
</g>
<defs>
<filter id="filter0_f_157_1024" x="0" y="0" width="949.914" height="874" filterUnits="userSpaceOnUse" color-interpolation-filters="sRGB">
<feFlood flood-opacity="0" result="BackgroundImageFix"/>
<feBlend mode="normal" in="SourceGraphic" in2="BackgroundImageFix" result="shape"/>
<feGaussianBlur stdDeviation="6.25" result="effect1_foregroundBlur_157_1024"/>
</filter>
<linearGradient id="paint0_linear_157_1024" x1="420.811" y1="-14.3001" x2="529.114" y2="837.416" gradientUnits="userSpaceOnUse">
<stop stop-color="#FF26CC"/>
<stop offset="1" stop-color="#34FFF1"/>
</linearGradient>
</defs>
</svg>
