<svg width="1178" height="1813" viewBox="0 0 1178 1813" fill="none" xmlns="http://www.w3.org/2000/svg">
<path d="M53.7035 1808.16C291.788 1674.29 536.085 1533.31 696.743 1305.48C767.171 1205.61 822.135 1086.96 833.059 964.084C842.789 854.349 809.64 727.611 704.083 674.28C642.735 643.279 570.873 638.294 503.244 636.723C430.87 635.05 356.652 642.152 287.794 665.369C228.153 685.479 172.199 717.3 126.829 761.242C85.1453 801.599 45.8857 856.739 43.5642 916.728C42.3694 947.32 53.7376 977.639 78.898 995.939C107.711 1016.87 144.923 1014.07 176.74 1001.98C234.503 980.029 289.603 948.173 339.685 912.221C441.589 839.087 527.551 744.205 587.499 633.787C650.69 517.394 688.55 388.13 775.433 285.565C848.354 199.491 944.011 130.591 1054.42 102.902C1080.98 96.2437 1122.74 50.0073 1150.08 48.6075C1196 46.2858 1181.24 -2.27285 1135.05 0.0829999C899.118 12.1012 712.037 203.623 614.263 408.513C585.621 468.536 561.109 530.505 529.975 589.333C503.415 639.523 471.7 686.879 434.454 729.796C360.578 814.949 268.061 885.316 164.279 930.044C153.764 934.585 141.065 940.423 129.389 939.979C119.83 939.638 118.704 938.101 115.973 931.205C117.577 935.302 114.812 920.62 115.256 925.4C114.914 921.713 115.153 914.27 115.324 912.904C116.553 902.661 120.377 891.36 124.371 883.234C147.858 835.741 187.221 797.297 232.011 769.743C337.056 705.145 473.304 697.19 592.824 714.876C643.247 722.353 693.5 740.551 723.405 782.547C750.068 819.967 761.026 866.094 762.768 911.538C766.898 1019.84 723.644 1126.88 668.237 1218.24C536.905 1434.74 318.621 1574.69 103.683 1697.5C75.0402 1713.86 46.2953 1730.04 17.5504 1746.19C-22.6651 1768.79 13.4196 1830.76 53.7376 1808.09L53.7035 1808.16Z" fill="white" fill-opacity="0.2"/>
</svg>
