<svg width="30" height="30" viewBox="0 0 30 30" fill="none" xmlns="http://www.w3.org/2000/svg">
<path d="M16.1785 0.715666C17.2595 2.76706 19.8004 3.52091 21.8087 2.38464C22.742 1.8556 23.8823 2.59479 23.7939 3.67241C23.6039 5.98771 25.3386 8.00856 27.6362 8.14785C28.7051 8.2126 29.268 9.45639 28.6167 10.3141C27.2161 12.159 27.5926 14.8042 29.452 16.1763C30.3163 16.814 30.1238 18.1678 29.1167 18.5331C26.951 19.3212 25.8506 21.7525 26.6787 23.92C27.0636 24.928 26.1775 25.9616 25.134 25.7197C22.8897 25.2004 20.6611 26.6458 20.1974 28.922C19.982 29.9801 18.6818 30.3662 17.9337 29.5928C16.3237 27.9312 13.6751 27.9312 12.0663 29.5928C11.3182 30.365 10.018 29.9801 9.80257 28.922C9.33893 26.6458 7.11033 25.2004 4.866 25.7197C3.82252 25.9616 2.93519 24.928 3.32135 23.92C4.15057 21.7525 3.0502 19.3199 0.88334 18.5331C-0.123826 18.1666 -0.316304 16.814 0.548019 16.1763C2.40619 14.8042 2.78387 12.159 1.38328 10.3141C0.732016 9.45639 1.29492 8.2126 2.36382 8.14785C4.66263 8.00856 6.39612 5.98771 6.20607 3.67241C6.1177 2.59601 7.2568 1.85682 8.19134 2.38464C10.1996 3.52091 12.7405 2.76828 13.8215 0.715666C14.3239 -0.238555 15.6785 -0.238555 16.1809 0.715666H16.1785Z" fill="#FFC900"/>
</svg>
