<svg width="972" height="1019" viewBox="0 0 972 1019" fill="none" xmlns="http://www.w3.org/2000/svg">
<g opacity="0.6" filter="url(#filter0_f_162_1188)">
<path d="M151.83 876.728C145.044 897.327 138.209 955.262 157.489 1006.5L354.503 970.18C351.557 961.82 321.331 922.874 367.627 895.847C408.04 872.255 540.345 842.775 540.345 842.775C540.345 842.775 695.116 813.559 773.571 789.507C852.026 765.456 908.872 711.828 933.307 688.147C957.741 664.465 963.816 605.971 956.584 566.739C944.862 503.15 925.049 444.478 836.97 401.814C748.892 359.15 332.943 410.489 280.847 402.97C228.75 395.452 220.048 354.924 229.906 317.161C240.657 275.971 293.079 278.804 329.833 268.604C366.587 258.404 403.273 251.642 438.233 243.142C473.193 234.642 575.288 213.082 607.478 200.984C639.667 188.886 720.29 164.435 755.533 135.336C790.776 106.238 796.563 87.3638 806.678 62.2128C814.77 42.0921 818.925 20.6879 819.992 12.5009L613.05 30.5608C613.05 30.5608 553.537 78.2942 516.368 94.5193C449.917 123.527 389.422 87.2565 341.355 94.5193C293.289 101.782 186.178 127.973 138.076 150.539C77.9488 178.745 57.5112 210.753 30.333 268.604C-13.0464 360.941 29.6973 465.706 83.9373 508.444C138.177 551.182 228.554 553.698 284.963 562.476C341.372 571.254 660.784 547.301 676.653 545.745C692.523 544.189 723.993 581.536 725.565 597.684C727.137 613.831 704.427 639.249 665.688 653.925C634.697 665.665 519.621 683.363 465.957 690.745C366.458 711.142 281.682 746.632 250.905 762.579C214.281 781.555 159.036 854.853 151.83 876.728Z" fill="url(#paint0_linear_162_1188)" fill-opacity="0.19"/>
</g>
<defs>
<filter id="filter0_f_162_1188" x="0" y="0" width="971.939" height="1019" filterUnits="userSpaceOnUse" color-interpolation-filters="sRGB">
<feFlood flood-opacity="0" result="BackgroundImageFix"/>
<feBlend mode="normal" in="SourceGraphic" in2="BackgroundImageFix" result="shape"/>
<feGaussianBlur stdDeviation="6.25" result="effect1_foregroundBlur_162_1188"/>
</filter>
<linearGradient id="paint0_linear_162_1188" x1="565.059" y1="931.364" x2="409.494" y2="87.4998" gradientUnits="userSpaceOnUse">
<stop stop-color="#FF26CC"/>
<stop offset="1" stop-color="#34FFF1"/>
</linearGradient>
</defs>
</svg>
