<svg width="61" height="78" viewBox="0 0 61 78" fill="none" xmlns="http://www.w3.org/2000/svg">
<path d="M39.2986 1.10646C40.16 2.81526 38.8114 16.658 38.882 20.0828C38.9385 22.8255 39.1997 29.2873 40.2589 31.5274C42.8784 37.0846 54.3171 38.4272 59.182 41.9166C62.43 44.2429 60.9401 45.363 57.7416 46.2676C52.3824 47.7826 41.3745 46.3897 37.6746 49.7857C32.7956 54.2588 29.7947 71.1745 26.5326 77.5717C24.6968 78.6702 23.5035 77.5215 22.9951 75.6475C21.8371 71.3899 23.1292 61.9771 22.7268 56.8363C22.4232 52.9233 21.9148 46.5333 18.5256 44.1783C14.5997 41.4571 3.16816 38.578 0.682741 35.7707C-1.69677 33.0854 2.77983 32.2813 4.40383 31.9582C10.6386 30.7305 17.1487 31.1038 23.4187 30.1273C24.7462 27.5641 26.1301 25.0871 27.3093 22.4306C29.8582 16.701 32.2378 6.06054 35.0833 1.57314C36.1777 -0.150019 38.4089 -0.674143 39.2986 1.10646Z" fill="#FFC900"/>
</svg>
