<svg width="83" height="105" viewBox="0 0 83 105" fill="none" xmlns="http://www.w3.org/2000/svg">
<path d="M26.3971 0.519156C28.6371 2.01235 36.4185 19.8949 38.8468 24.0382C40.7915 27.3564 45.5326 35.0851 48.3819 37.0913C55.4404 42.0737 70.5963 35.7685 79.0367 36.6593C84.6694 37.2499 83.5803 39.6563 80.2171 42.9864C74.5815 48.5651 59.9274 54.5095 57.6427 61.2378C54.6263 70.1039 62.451 92.8964 62.7623 102.994C61.2279 105.615 58.9574 105.038 57.044 103.097C52.6929 98.6899 47.8687 86.2694 43.8545 80.2561C40.8025 75.677 35.8027 68.208 29.9746 67.6804C23.2282 67.0774 7.03105 71.4969 2.01878 69.7875C-2.77824 68.1539 2.24453 64.0587 4.04522 62.5347C10.967 56.6991 19.3257 52.6322 26.4631 47.0798C26.3638 43.0196 26.3936 39.0257 26.0459 34.9543C25.3033 26.1693 20.9936 11.4903 21.4689 4.0197C21.6536 1.14979 24.0728 -1.0423 26.3971 0.519156Z" fill="#FFC900"/>
</svg>
