<svg width="901" height="871" viewBox="0 0 901 871" fill="none" xmlns="http://www.w3.org/2000/svg">
<g opacity="0.6" filter="url(#filter0_f_157_1034)">
<path d="M807.294 726.729C830.577 762.857 800.288 782.78 826.311 858.348L654.656 858.348C656.312 849.975 674.575 806.209 627.131 786.784C585.716 769.827 443.661 765.734 443.661 765.734C443.661 765.734 293.319 759.075 215.86 746.889C138.401 734.704 77.3799 691.364 51.0656 672.134C24.7514 652.904 11.0937 597.972 12.6283 559.581C15.1157 497.356 25.9207 438.709 103.459 385.976C180.998 333.243 581.365 325.226 629.623 310.924C677.882 296.623 680.631 256.796 666.2 222.145C650.46 184.35 601.26 194.23 565.117 189.539C528.973 184.848 493.36 183.425 459.143 180.109C424.927 176.794 325.445 170.22 293.362 163.095C261.28 155.969 181.715 143.7 144.446 120.786C107.176 97.8719 99.1492 80.6713 86.1805 58.0795C75.8056 40.0061 68.98 20.1701 66.8642 12.5113L530.498 31.0444C576.943 31.3862 681.972 35.801 730.521 50.726C791.208 69.3823 829.61 85.7504 863.141 137.18C916.66 219.266 875.657 336.34 830.135 384.51C784.612 432.68 699.47 447.455 647.303 463.548C595.136 479.641 289.782 500.545 274.561 501.235C259.341 501.925 234.626 541.837 235.323 557.447C236.02 573.056 260.937 594.177 299.563 602.863C330.464 609.811 441.702 610.925 493.458 610.614C590.328 616.433 673.173 627.139 713.709 644.154C769.05 667.384 778.211 681.599 807.022 726.307L807.294 726.729Z" fill="url(#paint0_linear_157_1034)" fill-opacity="0.19"/>
</g>
<defs>
<filter id="filter0_f_157_1034" x="0" y="0" width="901" height="870.86" filterUnits="userSpaceOnUse" color-interpolation-filters="sRGB">
<feFlood flood-opacity="0" result="BackgroundImageFix"/>
<feBlend mode="normal" in="SourceGraphic" in2="BackgroundImageFix" result="shape"/>
<feGaussianBlur stdDeviation="6.25" result="effect1_foregroundBlur_157_1034"/>
</filter>
<linearGradient id="paint0_linear_157_1034" x1="432.267" y1="853.572" x2="465.276" y2="27.7977" gradientUnits="userSpaceOnUse">
<stop stop-color="#FF26CC"/>
<stop offset="1" stop-color="#34FFF1"/>
</linearGradient>
</defs>
</svg>
